<?xml version="1.0" encoding="UTF-8"?>
<!DOCTYPE svg PUBLIC "-//W3C//DTD SVG 1.1//EN" "http://www.w3.org/Graphics/SVG/1.1/DTD/svg11.dtd">
<!-- Creator: CorelDRAW X8 -->
<svg xmlns="http://www.w3.org/2000/svg" xml:space="preserve" width="50.6132mm" height="10.9472mm" version="1.1" style="shape-rendering:geometricPrecision; text-rendering:geometricPrecision; image-rendering:optimizeQuality; fill-rule:evenodd; clip-rule:evenodd"
viewBox="0 0 525 114"
 xmlns:xlink="http://www.w3.org/1999/xlink">
 <defs>
  <style type="text/css">
   <![CDATA[
    .fil1 {fill:white}
    .fil0 {fill:white;fill-rule:nonzero}
   ]]>
  </style>
 </defs>
 <g id="Capa_x0020_1">
  <metadata id="CorelCorpID_0Corel-Layer"/>
  <g id="_2229426491472">
   <g>
    <path class="fil0" d="M356 6l-19 0 0 11 -6 0 0 13 6 0 0 23c0,10 6,14 20,14 3,0 4,0 7,0l0 -13c-1,0 -2,0 -2,0 -4,0 -6,-2 -6,-5l0 -19 9 0 0 -13 -9 0 0 -11zm169 40l0 -5c0,-16 -10,-26 -26,-26 -11,0 -19,5 -23,14l-22 0 0 -12 27 0 0 -16 -47 0 0 66 20 0 0 -23 19 0c1,15 11,25 27,25 14,0 23,-7 25,-18l-17 0c-1,3 -4,5 -8,5 -5,0 -9,-4 -9,-9l0 -1 34 0zm-26 -18c5,0 8,3 8,8l-15 0c0,-5 3,-8 7,-8zm-248 -13c-15,0 -24,7 -24,18l17 0c0,-3 2,-5 6,-5 4,0 6,2 6,6l0 2 -11 1c-13,1 -21,6 -21,16 0,9 8,15 17,15 6,0 12,-3 15,-8l0 0 0 7 19 0 0 -34c0,-11 -10,-18 -24,-18zm5 34c0,4 -4,6 -8,6 -3,0 -5,-1 -5,-4 0,-2 2,-4 5,-4 0,0 5,-1 7,-1 1,0 1,0 1,0l0 3zm137 -34c-15,0 -24,7 -25,18l17 0c0,-3 3,-5 7,-5 3,0 6,2 6,6l0 2 -11 1c-14,1 -21,6 -21,16 0,9 7,15 17,15 5,0 12,-3 14,-8l1 0 0 7 18 0 0 -34c0,-11 -9,-18 -23,-18zm5 34c0,4 -4,6 -8,6 -4,0 -6,-1 -6,-4 0,-2 2,-4 6,-4 0,0 4,-1 7,-1 0,0 1,0 1,0l0 3zm-86 -33c-8,0 -13,4 -15,11l-1 0 0 -10 -18 0 0 50 19 0 0 -28c0,-5 2,-8 7,-8 5,0 7,3 7,8l0 28 19 0 0 -32c0,-12 -7,-19 -18,-19zm-107 11l-9 -1c-7,-1 -9,-3 -9,-6 0,-4 3,-6 8,-6 5,0 9,3 9,7l18 0c0,-13 -10,-21 -27,-21 -16,0 -28,8 -28,22 0,10 7,17 19,19l9 2c7,1 9,2 9,5 0,4 -3,6 -9,6 -5,0 -10,-2 -10,-6l-19 0c0,13 11,20 29,20 17,0 29,-8 29,-22 0,-10 -6,-17 -19,-19z"/>
    <path class="fil0" d="M516 113l4 0 -8 -22 -5 0 -8 22 4 0 2 -5 9 0 2 5zm-10 -9l3 -9 1 0 3 9 -7 0zm-15 9l5 0 0 -22 -5 0 0 22zm-17 -18c1,-1 2,-1 4,-1 0,0 1,0 2,0 0,1 1,1 1,1 1,1 1,1 1,2 1,0 1,1 1,1l4 0c0,-1 0,-2 -1,-3 0,-1 -1,-2 -2,-3 -1,0 -2,-1 -3,-1 -1,0 -2,-1 -4,-1 -2,0 -3,1 -5,2 -1,1 -3,2 -4,4 -1,1 -1,4 -1,6 0,2 0,4 1,6 1,2 2,3 4,4 2,1 3,2 5,2 2,0 3,-1 4,-1 1,0 2,-1 3,-2 1,0 2,-1 2,-2 1,-1 1,-2 1,-3l-4 0c0,0 0,1 -1,1 0,1 0,1 -1,2 0,0 -1,0 -2,1 0,0 -1,0 -1,0 -2,0 -3,0 -4,-1 -1,-1 -1,-2 -2,-3 -1,-1 -1,-2 -1,-4 0,-2 0,-3 1,-4 1,-2 1,-2 2,-3zm-15 11l-1 0 -10 -15 -4 0 0 22 4 0 0 -15 0 0 11 15 4 0 0 -22 -4 0 0 15zm-24 7l4 0 0 -22 -4 0 0 22zm-14 -5l0 0 -6 -17 -5 0 8 22 5 0 8 -22 -4 0 -6 17zm-19 -16c-1,-1 -3,-2 -5,-2 -2,0 -4,1 -6,2 -1,1 -3,2 -3,4 -1,1 -2,4 -2,6 0,2 1,4 2,6 0,2 2,3 3,4 2,1 4,2 6,2 2,0 4,-1 5,-2 2,-1 3,-2 4,-4 1,-2 1,-4 1,-6 0,-2 0,-5 -1,-6 -1,-2 -2,-3 -4,-4zm0 14c0,1 -1,2 -2,3 -1,1 -2,1 -3,1 -2,0 -3,0 -4,-1 -1,-1 -1,-2 -2,-3 0,-1 -1,-2 -1,-4 0,-2 1,-3 1,-4 1,-2 1,-2 2,-3 1,-1 2,-1 4,-1 1,0 2,0 3,1 1,1 2,1 2,3 1,1 1,2 1,4 0,2 0,3 -1,4zm-23 -2c1,0 2,-1 3,-2 0,-1 1,-3 1,-4 0,-2 -1,-3 -1,-4 -1,-1 -2,-2 -3,-2 -1,-1 -3,-1 -5,-1l-8 0 0 22 4 0 0 -8 4 0 5 8 4 0 -5 -9c1,0 1,0 1,0zm-9 -10l4 0c1,0 2,0 2,1 1,0 2,0 2,1 0,0 0,1 0,2 0,1 0,1 0,2 0,0 -1,1 -2,1 0,0 -1,1 -2,1l-4 0 0 -8zm-12 -2c-1,-1 -2,-1 -4,-1l-9 0 0 22 4 0 0 -7 5 0c2,0 3,-1 4,-1 1,-1 2,-2 3,-3 1,-1 1,-2 1,-4 0,-1 0,-3 -1,-4 -1,-1 -2,-2 -3,-2zm-1 8c0,1 -1,1 -1,2 -1,0 -2,0 -3,0l-4 0 0 -8 4 0c1,0 2,0 3,1 0,0 1,0 1,1 1,1 1,1 1,2 0,1 0,2 -1,2z"/>
   </g>
   <path class="fil1" d="M142 56l-57 0c-1,0 -2,-1 -2,-2l0 -17c0,-1 1,-2 2,-2l57 0c1,0 2,1 2,2l0 17c0,1 -1,2 -2,2zm-31 35l-26 0c-1,0 -2,-1 -2,-2l0 -17c0,-1 1,-2 2,-2l26 0c1,0 2,1 2,2l0 17c0,1 -1,2 -2,2zm-38 -56l-1 0c-5,0 -10,1 -15,2 -6,2 -12,5 -18,9 -3,2 -6,4 -8,5 -7,4 -13,6 -20,6 -2,0 -6,0 -9,0 -1,-1 -2,0 -2,1l0 18c0,1 1,1 1,1 3,1 7,1 9,1 4,0 8,-1 12,-2 7,-1 13,-4 19,-8 4,-3 7,-5 11,-7 7,-4 14,-5 21,-5l0 0c1,0 2,0 2,-1 0,-4 0,-14 0,-18 0,-1 -1,-2 -2,-2zm0 35l-1 0c-5,0 -10,1 -15,2 -6,2 -12,5 -18,9 -3,2 -6,4 -8,5 -7,4 -13,5 -20,6 -2,0 -6,0 -9,-1 -1,0 -2,1 -2,2l0 18c0,0 1,1 1,1 3,0 7,1 9,1 4,-1 8,-1 12,-2 7,-1 13,-4 19,-8 4,-3 7,-5 11,-7 7,-4 14,-5 21,-5l0 0c1,0 2,-1 2,-2 0,-4 0,-13 0,-17 0,-1 -1,-2 -2,-2zm69 -49l-57 0c-1,0 -2,0 -2,-1l0 -18c0,-1 1,-1 2,-1l57 0c1,0 2,0 2,1l0 18c0,1 -1,1 -2,1zm-69 -20l-1 0c-5,0 -10,0 -15,2 -6,1 -12,4 -18,8 -3,2 -6,4 -8,6 -7,3 -13,5 -20,5 -2,0 -6,0 -9,0 -1,0 -2,0 -2,1l0 18c0,1 1,1 1,1 3,1 7,1 9,1 4,0 8,-1 12,-2 7,-1 13,-4 19,-8 4,-2 7,-5 11,-7 7,-3 14,-5 21,-5l0 0c1,0 2,0 2,-1 0,-4 0,-13 0,-17 0,-2 -1,-2 -2,-2z"/>
  </g>
 </g>
</svg>
