<?xml version="1.0" encoding="UTF-8"?>
<!DOCTYPE svg PUBLIC "-//W3C//DTD SVG 1.1//EN" "http://www.w3.org/Graphics/SVG/1.1/DTD/svg11.dtd">
<!-- Creator: CorelDRAW X8 -->
<svg xmlns="http://www.w3.org/2000/svg" xml:space="preserve" width="74.0833mm" height="15.8872mm" version="1.1" style="shape-rendering:geometricPrecision; text-rendering:geometricPrecision; image-rendering:optimizeQuality; fill-rule:evenodd; clip-rule:evenodd"
viewBox="0 0 1280 275"
 xmlns:xlink="http://www.w3.org/1999/xlink">
 <defs>
  <style type="text/css">
   <![CDATA[
    .fil1 {fill:white}
    .fil0 {fill:white;fill-rule:nonzero}
   ]]>
  </style>
 </defs>
 <g id="Capa_x0020_1">
  <metadata id="CorelCorpID_0Corel-Layer"/>
  <path class="fil0" d="M638 111c-6,-10 -14,-18 -25,-24 -11,-6 -23,-8 -37,-8l-83 0 0 140c0,28 23,52 52,52l0 -57 29 0c14,0 27,-3 38,-8 11,-6 20,-14 26,-24 6,-10 9,-22 9,-35 0,-14 -3,-26 -9,-36l0 0zm-49 50c-2,4 -6,7 -10,9 -4,2 -10,3 -16,3l-18 0 0 -53 18 0c6,0 12,1 16,3 4,3 8,6 10,9 2,4 4,9 4,15 0,5 -2,10 -4,14zm584 113c-12,0 -23,-2 -32,-6 -10,-4 -18,-11 -23,-19 -6,-9 -9,-19 -9,-32 0,-11 2,-20 6,-27 4,-7 10,-13 16,-17 7,-5 15,-8 24,-10 8,-3 17,-4 27,-5 11,-1 20,-2 27,-3 7,-1 12,-3 15,-5 3,-2 5,-5 5,-9l0 -1c0,-9 -3,-15 -8,-19 -5,-5 -12,-7 -22,-7 -10,0 -18,2 -24,6 -5,5 -9,10 -11,16l-48 -4c3,-12 8,-22 15,-30 8,-9 17,-15 29,-20 11,-4 24,-6 39,-6 11,0 21,1 30,3 10,3 19,7 26,12 8,5 14,12 18,20 5,8 7,18 7,30l0 130 -22 0c-15,0 -27,-12 -27,-27l-1 0c-3,6 -7,11 -12,16 -6,4 -12,8 -19,11 -7,2 -16,3 -26,3l0 0zm15 -35c8,0 15,-2 21,-5 7,-4 11,-8 15,-14 3,-5 5,-11 5,-18l0 -21c-1,1 -4,2 -7,3 -3,1 -6,2 -10,2 -4,1 -7,2 -11,2 -4,1 -7,1 -10,2 -6,1 -12,2 -17,4 -5,2 -9,5 -11,8 -3,4 -4,8 -4,13 0,8 2,14 8,18 5,4 12,6 21,6l0 0zm-93 -107l-47 4c-1,-5 -3,-8 -6,-12 -2,-3 -6,-6 -11,-8 -4,-2 -10,-3 -16,-3 -9,0 -16,1 -22,5 -5,4 -8,8 -8,14 0,5 2,9 5,13 4,3 11,5 20,7l34 7c19,4 33,10 42,19 9,9 13,20 13,34 0,12 -3,23 -11,33 -7,9 -17,16 -30,22 -12,5 -27,8 -43,8 -25,0 -45,-6 -60,-16 -15,-11 -24,-25 -27,-43l51 -3c1,8 5,14 12,18 6,4 14,6 24,6 9,0 17,-2 23,-6 6,-3 9,-8 9,-14 0,-5 -2,-10 -6,-13 -4,-3 -10,-5 -19,-7l-33 -7c-19,-4 -33,-10 -42,-19 -9,-10 -13,-21 -13,-36 0,-12 3,-23 10,-31 6,-9 16,-16 28,-21 12,-5 26,-7 42,-7 24,0 43,5 57,15 13,10 22,24 24,41l0 0zm-184 -118l0 257c-29,0 -52,-23 -52,-52l0 -205 52 0zm-131 175l0 -111 51 0 0 193 -14 0c-20,0 -35,-16 -35,-35l-2 0c-5,11 -12,20 -22,27 -10,7 -22,10 -37,10 -12,0 -24,-3 -33,-8 -10,-6 -18,-15 -23,-25 -6,-11 -8,-24 -9,-39l0 -123 52 0 0 114c0,11 3,21 9,27 6,7 15,11 25,11 6,0 13,-2 18,-5 6,-3 11,-8 14,-14 4,-6 6,-13 6,-22l0 0z"/>
  <path class="fil1" d="M473 271l-166 -132 0 -61 166 132 0 61zm-115 0l-166 -132 0 -61 166 132 0 61zm-115 -61l-166 -132 0 61 0 80c0,29 23,52 51,52l0 -91 115 91 0 -61z"/>
  <path class="fil0" d="M28 53c-7,0 -14,-3 -20,-8 -5,-5 -8,-11 -8,-19 0,-7 3,-13 8,-18 6,-5 13,-8 20,-8 8,0 15,3 20,8 6,5 8,11 8,18 0,8 -2,14 -8,19 -5,5 -12,8 -20,8zm-26 166l0 -141 52 0 0 193c-29,0 -52,-23 -52,-52z"/>
 </g>
</svg>
